<?xml version="1.0" encoding="utf-8"?>
<!-- Generator: Adobe Illustrator 26.0.3, SVG Export Plug-In . SVG Version: 6.00 Build 0)  -->
<svg version="1.1" id="Layer_1" xmlns="http://www.w3.org/2000/svg" xmlns:xlink="http://www.w3.org/1999/xlink" x="0px" y="0px"
	 viewBox="0 0 519 239" style="enable-background:new 0 0 519 239;" xml:space="preserve">
<style type="text/css">
	.st0{fill:#333333;}
</style>
<g>
	<path class="st0" d="M482.6,46.2c0-10.3,7.5-18.3,18.2-18.3c10.8,0,18.2,8.1,18.2,18.3c0,10-7.3,18.2-18.2,18.2
		C489.7,64.3,482.6,56,482.6,46.2 M516.5,46.2c0-8.6-6.2-15.9-15.6-15.9c-9.5,0-15.6,7.4-15.6,15.9c0,8.6,6,15.8,15.6,15.8
		C510.5,62,516.5,54.8,516.5,46.2 M494,35.1h9c3.9,0,6.7,2.9,6.7,6.7c0,3.1-1.9,5.5-4.7,6.4l5.3,8.1h-3.5l-5-7.8h-4.9v7.8h-3V35.1z
		 M502.6,45.8c2.6,0,4.3-1.6,4.3-3.9c0-2.4-1.6-3.9-3.9-3.9h-6.1v7.9H502.6z"/>
	<g>
		<path class="st0" d="M125.2,29.8h-8.3v105.5c0,30.3-21,43.8-41.7,43.8c-20.7,0-41.5-13.6-41.5-43.8L33.2,29.8h-7.8H8.3H0v105.5
			c0,52.6,39,76.5,75.1,76.5c20.2,0,38.7-6.9,52.2-19.4c15-13.9,22.9-33.7,22.9-57.1V29.8H142H125.2z"/>
		<path class="st0" d="M403.1,27.9c-49.8,0-90.3,41.3-90.3,92c0,51.4,39.7,91.7,90.3,91.7c24.2,0,46.8-9.4,63.8-26.4
			c17.2-17.3,26.7-40.6,26.6-65.3C493.5,69.2,452.9,27.9,403.1,27.9 M403.1,179.2c-31.9,0-56.9-26-56.9-59.3
			c0-33.4,25-59.5,56.9-59.5c31.9,0,56.9,26.1,56.9,59.5C460.1,153.1,435,179.2,403.1,179.2"/>
		<polygon class="st0" points="308.6,29.8 172.4,29.8 172.4,62 264,62 172.6,174.8 172.6,210 184.4,210 308.6,59.4 		"/>
	</g>
	<polygon class="st0" points="207.1,210 308.6,210 308.6,201.7 308.6,186 308.6,177.8 233.7,177.8 	"/>
</g>
</svg>
