<svg width="210" height="57" viewBox="0 0 210 57" fill="none" xmlns="http://www.w3.org/2000/svg">
<path fill-rule="evenodd" clip-rule="evenodd" d="M118.256 0.546509C102.69 0.546509 90.1438 13.0051 90.1438 28.3477C90.1438 43.8056 102.69 56.1489 118.256 56.1489C133.938 56.1489 146.484 43.6903 146.484 28.3477C146.484 12.8898 133.938 0.546509 118.256 0.546509ZM118.256 45.9974C108.498 45.9974 100.715 38.0378 100.715 28.3477C100.715 18.5423 108.614 10.698 118.256 10.698C128.13 10.698 136.029 18.5423 136.029 28.3477C136.029 38.0378 128.13 45.9974 118.256 45.9974ZM11.268 54.8813L0 1.81671H10.4548L21.7227 54.8806L33.1067 1.81671H43.5616L32.1774 54.8813H21.7228H21.7226H11.268ZM54.946 54.8813L43.5618 1.81671H54.0167L65.517 54.8813H54.946ZM75.9721 54.8813H65.5172L76.9014 1.81671H87.3562L75.9721 54.8813ZM152.873 28.3477C152.873 13.0051 165.535 0.546509 181.101 0.546509C196.551 0.546509 209.096 12.8898 209.096 28.3477C209.096 43.8056 196.667 56.1489 181.101 56.1489C165.535 56.1489 152.873 43.8056 152.873 28.3477ZM163.327 28.3477C163.327 38.0378 171.227 45.9974 181.101 45.9974C190.742 45.9974 198.758 38.0378 198.874 28.3477C198.874 18.5423 190.859 10.698 181.101 10.698C171.227 10.698 163.327 18.5423 163.327 28.3477Z" fill="#002E1C"/>
</svg>
